<?xml version="1.0" standalone="no"?>
<!DOCTYPE svg PUBLIC "-//W3C//DTD SVG 20010904//EN"
 "http://www.w3.org/TR/2001/REC-SVG-20010904/DTD/svg10.dtd">
<svg version="1.0" xmlns="http://www.w3.org/2000/svg"
 width="408.000000pt" height="408.000000pt" viewBox="0 0 408.000000 408.000000"
 preserveAspectRatio="xMidYMid meet">
<metadata>
Created by potrace 1.11, written by Peter Selinger 2001-2013
</metadata>
<g transform="translate(0.000000,408.000000) scale(0.100000,-0.100000)"
fill="#000000" stroke="none">
<path d="M2020 4003 c-46 -17 -217 -149 -295 -227 -298 -299 -449 -786 -346
-1116 26 -81 70 -156 200 -340 143 -202 244 -354 279 -425 39 -76 89 -225 98
-290 3 -27 8 -59 10 -70 6 -26 5 -255 -1 -264 -2 -4 -6 -29 -10 -56 -8 -71
-42 -198 -77 -290 -102 -268 -336 -518 -599 -642 -52 -25 -192 -74 -274 -98
-20 -5 170 -86 237 -100 299 -63 620 -14 860 133 435 264 659 695 614 1182 -4
41 -11 91 -16 110 -5 19 -11 46 -13 60 -10 55 -61 189 -104 272 -82 159 -184
280 -350 414 -113 92 -198 183 -268 289 -74 111 -150 279 -171 376 -32 156
-35 176 -35 294 -1 262 73 497 227 718 30 42 53 77 52 76 -2 0 -10 -3 -18 -6z"/>
<path d="M2312 3953 c-5 -10 -17 -40 -26 -68 -64 -200 -43 -441 56 -629 l16
-30 6 30 c4 16 9 43 12 59 10 57 24 103 49 156 17 35 23 43 19 24 -12 -54 -12
-209 0 -280 l12 -70 54 4 c211 17 341 -4 490 -79 232 -117 392 -332 440 -594
17 -93 8 -260 -20 -351 -24 -77 -84 -210 -100 -220 -6 -3 -10 -10 -10 -15 0
-21 196 -103 275 -116 63 -10 235 -11 295 -2 86 13 181 48 189 69 8 23 6 210
-3 304 -37 388 -198 781 -443 1085 -73 90 -235 252 -318 316 -168 131 -397
257 -590 324 -95 33 -252 75 -320 85 -22 3 -48 8 -57 11 -10 3 -21 -2 -26 -13z"/>
<path d="M1352 3865 c-159 -59 -417 -193 -502 -261 -8 -7 -49 -40 -91 -72
-215 -169 -433 -444 -556 -702 -86 -180 -148 -377 -178 -572 -34 -217 -27
-495 20 -733 39 -204 160 -497 280 -681 40 -61 120 -170 141 -191 7 -7 21 -23
31 -36 10 -12 36 -36 58 -53 147 -113 369 -106 508 16 66 58 100 112 131 205
87 267 70 593 -45 851 -17 40 -20 42 -56 37 -64 -9 -195 -53 -263 -90 -61 -33
-147 -95 -162 -117 -4 -6 -9 -8 -12 -5 -8 8 62 105 121 170 54 58 191 157 246
178 l28 11 -22 33 c-13 17 -45 57 -71 87 -132 150 -245 377 -277 557 -6 32
-13 74 -17 93 -21 123 -7 328 32 470 102 369 348 650 704 807 97 43 71 41 -48
-2z"/>
<path d="M2410 2794 c34 -37 78 -92 98 -123 42 -65 98 -200 106 -256 26 -167
104 -280 238 -344 57 -27 93 -34 173 -35 l60 -1 3 57 c8 145 -87 370 -213 507
-112 122 -309 228 -458 247 -23 3 -48 7 -56 10 -7 2 14 -26 49 -62z"/>
<path d="M3299 1303 c-107 -113 -192 -247 -249 -394 -18 -46 -34 -90 -36 -99
-2 -8 -10 -42 -18 -75 -8 -33 -18 -85 -22 -115 -7 -56 -8 -259 0 -295 2 -11 7
-40 11 -65 13 -87 10 -84 73 -49 234 131 471 337 628 544 82 108 90 123 67
132 -38 14 -137 87 -192 142 -87 86 -136 164 -197 309 -9 23 -11 22 -65 -35z"/>
</g>
</svg>
